<svg width="76" height="69" viewBox="0 0 76 69" fill="none" xmlns="http://www.w3.org/2000/svg">
<path d="M71.7113 45.8324H4.28871C1.89501 45.8324 0 47.8034 0 50.07V53.5192C0 55.7858 1.89501 57.6582 4.28871 57.6582H5.28609V58.6437C5.28609 64.0639 9.77428 68.4 15.1601 68.4H60.8399C66.3255 68.4 70.7139 63.9653 70.7139 58.6437V57.6582H71.7113C74.0053 57.6582 76 55.7858 76 53.4206V49.9714C76 47.8034 74.105 45.8324 71.7113 45.8324ZM67.8215 58.6437C67.8215 62.3886 64.7297 65.4436 60.9396 65.4436H15.0604C11.2703 65.4436 8.17848 62.3886 8.17848 58.6437V57.6582H67.8215V58.6437ZM73.0079 53.4206C73.0079 54.1105 72.4095 54.7018 71.7113 54.7018H4.28871C3.59055 54.7018 2.99213 54.1105 2.99213 53.4206V49.9714C2.99213 49.3801 3.59055 48.7889 4.28871 48.7889H71.811C72.5092 48.7889 73.1076 49.3801 73.1076 50.07V53.4206H73.0079Z" fill="#81B3D2"/>
<path d="M16.1575 37.8496L21.5434 41.7915L27.0289 37.8496L32.5145 41.7915L38 37.8496L43.3859 41.7915L48.8714 37.8496L54.357 41.7915L59.8426 37.8496L65.3281 41.7915L71.6116 37.1597L69.9161 34.7946L65.3281 38.0467L59.8426 34.1047L54.357 38.0467L48.8714 34.1047L43.3859 38.0467L38 34.1047L32.5145 38.0467L27.0289 34.1047L21.5434 38.0467L16.1575 34.1047L10.672 38.0467L6.08403 34.7946L4.28876 37.1597L10.672 41.7915L16.1575 37.8496Z" fill="#81B3D2"/>
<path d="M70.7138 31.1486C70.7138 30.5573 70.8136 28.5864 70.7138 28.1922C70.0157 12.8186 55.6535 0.5 37.9999 0.5C20.3464 0.5 5.88444 12.8186 5.18628 28.1922C5.18628 28.5864 5.18628 30.5573 5.18628 31.1486H70.7138ZM37.9999 3.45646C53.9579 3.45646 67.1233 14.4939 67.7217 28.1922H8.17841C8.87657 14.4939 22.0419 3.45646 37.9999 3.45646Z" fill="#81B3D2"/>
<path d="M38 17.2532C39.1017 17.2532 39.9948 16.3708 39.9948 15.2823C39.9948 14.1937 39.1017 13.3113 38 13.3113C36.8983 13.3113 36.0052 14.1937 36.0052 15.2823C36.0052 16.3708 36.8983 17.2532 38 17.2532Z" fill="#81B3D2"/>
<path d="M30.021 12.424C31.1227 12.424 32.0157 11.5416 32.0157 10.453C32.0157 9.36449 31.1227 8.48206 30.021 8.48206C28.9193 8.48206 28.0262 9.36449 28.0262 10.453C28.0262 11.5416 28.9193 12.424 30.021 12.424Z" fill="#81B3D2"/>
<path d="M45.979 12.424C47.0807 12.424 47.9738 11.5416 47.9738 10.453C47.9738 9.36449 47.0807 8.48206 45.979 8.48206C44.8773 8.48206 43.9843 9.36449 43.9843 10.453C43.9843 11.5416 44.8773 12.424 45.979 12.424Z" fill="#81B3D2"/>
</svg>
