<svg width="75" height="73" viewBox="0 0 75 73" fill="none" xmlns="http://www.w3.org/2000/svg">
<path d="M29.6185 65.4389H45.6827V41.6709H29.6185V65.4389ZM42.7711 62.5549H32.5301V44.5549H42.6707V62.5549H42.7711Z" fill="#81B3D2"/>
<path d="M72.8916 39.6823L75 37.5939L65.0602 27.7486V0.89779H51.2048V14.0249L37.4498 0.5L0 37.6934L2.10843 39.7818L9.93976 32.0249V69.616H6.0241V72.5H70.1807V69.616H65.0602V31.9254L72.8916 39.6823ZM54.1165 3.88122H62.0482V24.8646L54.1165 17.0083V3.88122ZM62.1486 69.5166H12.9518V29.0414L37.4498 4.6768L62.0482 29.0414V69.5166H62.1486Z" fill="#81B3D2"/>
<path d="M29.9197 27.5491C29.9197 31.8253 33.4338 35.306 37.6507 35.306C41.9679 35.306 45.482 31.8253 45.482 27.5491C45.482 23.2728 41.9679 19.8916 37.6507 19.8916C33.3334 19.8916 29.9197 23.2728 29.9197 27.5491ZM37.6507 22.5767C40.3615 22.5767 42.6707 24.7645 42.6707 27.5491C42.6707 30.2341 40.4619 32.5214 37.6507 32.5214C34.9398 32.5214 32.6306 30.3336 32.6306 27.5491C32.6306 24.864 34.9398 22.5767 37.6507 22.5767Z" fill="#81B3D2"/>
<path d="M19.9799 41.6709H16.9679V45.5493H19.9799V41.6709Z" fill="#81B3D2"/>
<path d="M25.9036 41.6709H22.8915V45.5493H25.9036V41.6709Z" fill="#81B3D2"/>
<path d="M19.9799 47.6387H16.9679V51.5171H19.9799V47.6387Z" fill="#81B3D2"/>
<path d="M25.9036 47.6387H22.8915V51.5171H25.9036V47.6387Z" fill="#81B3D2"/>
<path d="M52.008 41.6709H48.996V45.5493H52.008V41.6709Z" fill="#81B3D2"/>
<path d="M58.0321 41.6709H55.0201V45.5493H58.0321V41.6709Z" fill="#81B3D2"/>
<path d="M52.008 47.6387H48.996V51.5171H52.008V47.6387Z" fill="#81B3D2"/>
<path d="M58.0321 47.6387H55.0201V51.5171H58.0321V47.6387Z" fill="#81B3D2"/>
</svg>
