<svg width="64" height="76" viewBox="0 0 64 76" fill="none" xmlns="http://www.w3.org/2000/svg">
<path d="M61.1556 22.6167H61.054H36.3683C50.1841 15.8189 51.3016 11.5202 50.7937 9.12098C49.6762 5.22221 45.1048 2.22316 40.8381 3.82266C35.2508 5.92199 33.727 14.1194 32.2032 20.0175C30.273 14.0194 28.4444 6.42183 24.0762 2.52307C22.8571 1.42341 21.0286 0.323761 18.2857 0.523698C14.2222 0.923572 8.43175 5.82202 10.8698 11.3203C13.1048 16.6186 20.5206 20.0175 25.4984 22.7167H2.84444C1.21905 22.7167 0 24.0163 0 25.5158V36.7123C0 38.3118 1.32063 39.5114 2.84444 39.5114H3.14921V75.5H61.054V39.5114H61.1556C62.781 39.5114 64 38.2118 64 36.7123V25.5158C64 23.9163 62.6794 22.6167 61.1556 22.6167ZM42.4635 6.32187C44.5968 6.02196 47.4413 7.62146 47.746 9.52085C48.1524 12.22 44.3937 14.7192 42.6667 15.8189C40.127 17.5183 37.6889 18.418 35.3524 19.8176C36.1651 16.1188 37.8921 6.92168 42.4635 6.32187ZM19.5048 16.1188C17.2698 14.6192 13.0032 11.7202 13.1048 8.4212C13.2063 4.82234 18.8952 1.92326 21.9429 4.6224C25.8032 7.92136 27.6317 15.6189 29.054 21.0172C25.8032 19.4177 22.7556 18.2181 19.5048 16.1188ZM25.4984 72.5009H6.09524V39.5114H25.4984V72.5009ZM25.4984 36.5123H3.04762V25.6158H25.4984V36.5123ZM35.6571 72.5009H28.4444V25.6158H35.6571V72.5009ZM58.0064 72.5009H38.7048V39.5114H58.1079V72.5009H58.0064ZM60.9524 36.5123H38.7048V25.6158H60.9524V36.5123Z" fill="#81B3D2"/>
</svg>
